<svg xmlns="http://www.w3.org/2000/svg" width="600" height="102" viewBox="0 0 600 102"><path fill-rule="evenodd" clip-rule="evenodd" fill="#f93" d="M58.9 25.9c-.4 1-2.7 4.4-8.2 2-2-.9-3.8-2.7-5.3-3.9-2.5-2-4.6-3.1-6.4-3.3-2.8-.3-10.8.1-14.2 6-3.3 5.9-5.3 9.8-4.7 17.4.5 7.6 1.9 20.4 13 22.5 11.1 2.2 13.3-1.6 14.5-2.9 1.2-1.2 7.8-7.3 12.3-4.3 2.6 1.7 1 7 .8 7.8-.4 1.2-2.8 11.5-27.6 10.6-24.7-1-31.5-18.7-31.5-34.9s14.3-31.5 31.9-32.7c17.6-1.1 23.2 2.9 24.9 8.9.8 2.7 1.4 4.6.5 6.8zM110.2 36.1c-3.3-3.3-6.1-6.2-10-6.6-4.1-.5-9 1.8-9.7 1.9-2.3.2-6.9-1-10.7.2-3.6 1.1-15.5 9.2-13.5 24.6 2.1 15.3 13.7 19.2 16.1 19.3 2.5.1 7.8-3 9.2-3.2 1.4-.2 4.8 1.7 7.1 1.8 3 .2 11.5-.4 15.6-19.2 1.6-7.4-.5-15.3-4.1-18.8zm-11.5 15.6c-.3 5.4-.8 15.5-7.3 15.1-6.5-.4-8.2-10-8.2-13.4 0-3.4-.1-15 8-15 3.8 0 7.8 7.9 7.5 13.3zM128.4 29.4s7 .1 11.1.9c4 .8 5.9 2.7 6.1 2.9.2.2 3.5-6.2 10.6-4.6 7.1 1.5 10.5 8.3 10.8 12.1.3 3.8.9 18.6.9 18.6s.3 4.2 2 5.3c.5.4-.1 3.8-1.8 6.6-1.4 2.5-4 4.3-4.8 4.4-2.7.1-4.4.1-6.6-.4-2.2-.4-5.8-5.9-6.2-9.1-.3-1.7 2.9-3.9 2.9-5.2s0-13.8-.8-15.2c-.8-1.5-3.2-4.7-5.6-5.4-.7-.2-1.3-2.7-1.4-2.7-.1 0-1.2.3-2.6 2.6-1.5 2.4-3.6 7.5-3.6 16 0 2.6.2 3.7.7 5.4.5 1.7 2.2 3.5 2.2 5.4 0 1.2-1.4 8.9-9.9 8.9s-9.9-8.5-9.9-8.5-.6-1 1.2-4.8c1.8-3.9 1.1-6.7 1.1-6.7s.4-8.9-.4-11c-.8-2.1-2.2-3.9-2.1-5.8.2-1.9 2-9.7 6.1-9.7zM250 29.3s6.9.1 10.8.9c3.9.8 5.9 3.6 6.2 3.8.2.2 3.3-6.4 10.1-5.6 7 .8 10.2 8.2 10.5 12 .3 3.7.9 18.1.9 18.1s.4 4.1 2 5.1c.5.3-.1 3.7-1.8 6.5-1.4 2.3-3.9 4.1-4.7 4.3-2.6.1-3.3.3-5.4-.2-2.2-.4-5.9-5.9-6.3-9-.3-1.7 2.1-3.8 2.1-5.1 0-1.3.1-13.4-.7-14.8-.8-1.4-2.2-3.5-4.2-4.8-.8-.6-2-3.4-2.2-3.4-.1 0-1.6.6-3 2.8-1.5 2.3-3.5 7.3-3.5 15.5 0 2.6.2 3.7.6 5.3.5 1.6 1.7 3.8 1.7 5.7 0 1.2-1.8 8.4-10.1 8.4-8.3 0-8.7-9-8.7-9s-.1-1.4 1.1-4.1c1.6-3.7 1.1-6.5 1.1-6.5s.4-8.6-.4-10.7c-.7-2-2.1-3.8-2-5.7.2-1.8 1.9-9.5 5.9-9.5zM187.9 18.6s3.7 1.1 6.5 3.9c2.8 2.7 3.4 3.3 3.4 6.5s.1 8.9.1 9.3c0 .4-2.7 4-2.9 5.5-.2 1.5-.4 12.4-.2 13.8.2 1.5-.4 3.1 4.8 6.8.6.4.3 6.7-.4 7.6-.8.8-2.2 3.4-7.4 3.2-5.2-.2-9-5.5-9.6-7.1-.6-1.6-2-6.4-2-11.9s.1-8.8.2-10.7c.1-1.8-1.7-5.1-1.9-6.2-.2-1.1-.4-9.7-.4-10.5 0-.7 1.1-4.4 4-6.9 2.8-2.6 4.8-3.2 5.8-3.3zM223 29.3c1.3.3 7.4 2.7 8.4 7.8 1 5.3-.1 19.5.3 21.9.4 2.4 2 4.9 2.5 6.2.5 1.3-3.3 9.4-9.7 9.4-5.9 0-8.9-6.5-8.9-8.5 0-2.6 1.8-3.4 2-6 .2-2.7.5-15.2-.7-16.6-1.3-1.3-2.1-3.4-1.5-6.2.6-2.8 1.7-5.5 3.5-7.3 1.1-1 2.8-.9 4.1-.7zM228.2 12.4c0 2.9-2.5 5.3-4.8 5.3s-4.4-2.6-4.4-5.4c0-2.9 2.1-5.2 4.4-5.2 2.3 0 4.8 2.5 4.8 5.3zM306.5 27.8c2.4.2 8.8 3.7 9.4 7.9.6 4.2.6 20 .7 20.7.2.8 1 4.5 4.8 5.8 3.9 1.4 5.1-1.2 5.8-2.7.8-1.6 1.7-3.6 2.1-7.5.1-1.3-.1-3.3-.4-4.8-.2-1.9-.6-4.4-1.2-5.9-.6-1.6-1.1-2.7-1.1-3.5-.1-2 3.4-10.4 6.7-10.4 3.3 0 9.6 5.4 9.8 9.5.2 4.1-.1 20.1.3 21.3.4 1.3 2.5 3.6 2.1 6.5-.4 2.9-2.1 8.7-6.9 8.9-1.2.1-2.7.1-5.3-.3-2.3-.4-5.4-1.3-6.6-1.7-2.1-.8-2.3-1.1-3.3-1.2-3.3-.4-5.2 3.3-9.4 3.3s-9.5-4.4-11-8.8c-1.5-4.3-1.3-18.3-1.3-18.3s.6-4-1.9-7c-2.4-3 3.5-10.6 4.1-11 1-.2 2.6-.8 2.6-.8zM361.4 27.8c2.4.2 8.8 3.7 9.4 7.9.6 4.2.6 19.3.8 20.1.2.8 1 4.5 4.8 5.8 3.9 1.3 5.1-1.2 5.9-2.7.8-1.6 1.2-2.9 1.5-6.8.1-1.3 0-3.3-.2-4.8-.2-1.9-.6-4.3-1.2-5.9-.6-1.6-.9-2.9-.9-3.7-.2-1.9 3.5-10.2 6.8-10.2 3.4 0 9.6 5.4 9.8 9.5.3 4.1 0 20.1.4 21.3.3 1.3 2.5 3.6 2.1 6.5-.3 2.9-2 8.9-6.7 9.2-1.2.1-2.7.2-5.3-.3-2.3-.4-5.4-1.3-6.5-1.7-2-.8-2.3-1.1-3.3-1.2-3.4-.4-5.2 3.4-9.4 3.4s-9.6-4.7-11.1-9.1c-1.5-4.3-1.3-18.3-1.3-18.3s.6-4-1.9-7c-2.4-3 3.5-10.6 4.1-11 .6-.4 2.2-1 2.2-1zM443.7 27c1.7.2 3.7.5 7.6 1.2 3.9.8 5.4 2.2 5.7 2.4.2.2 1.3-5.1 10-4.8 8.8.3 12 11.4 12.3 15.2.3 3.7.3 15.8.3 15.8s1.5 4 2.3 5.7c.3.5 0 5.2-1.6 8-1.4 2.3-4.4 4.3-5.1 4.4-2.6.1-3.6.3-5.8.1-1.1-.1-3-.8-5-2.3-2-1.6-4.6-4.4-4.8-6 .2-4.5 3.3-5.6 3.3-6.9 0-1.3.6-11.8.3-13.3-.2-1.6-.2-3.6-2.3-5-.8-.6-4.3-2-5.7.3-1.5 2.3-1.7 5.2-1.7 13.5 0 2.6.7 4 1.4 5.6.7 1.5 2.4 3.2 2.4 5.1 0 1.3-3.5 8.9-11.8 8.9s-10.8-7.3-10.8-9c0-1.6.9-2.3 2-5 1.6-3.8.9-5.7.9-5.7s.2-8.5-.5-10.5c0 0-.4-1.9-1.4-2.7-.9-.7-2.2-1.2-3.5-1.2-1.3.1-4.7 1.4-4.6 4.4.2 4.2.2 12.7.4 13.6.3.9 2.8 4 2.7 6.6-.1 2.5-4.9 9.4-10 9.2-5.2-.1-7.6-2.5-9.1-4.9-1.4-2.4-2.2-4.3-2.2-5.5 0-1.3 2.4-3.8 2.4-5.2v-14.5s-1.8-3.9-1.8-6.4c0-2.6 1.4-8.7 4.1-9.8 3.3-1.4 10 .2 11.2.2 1.3 0 5.1-.7 5.8-.5.7.2 2.2.4 2.7.4.3-.1 1.8-1.8 5.4-1.8-.3 0 2.8.1 4.5.4zM516 7.7c-3.8-3.3-4.7-3.7-4.7-3.7s-19.4 17.3-19.4 44.3c0 27 19.6 46.4 19.6 46.4s2.9-.4 5.3-2.1c2.4-1.8 4-5.3 4-5.3s-10.4-14.9-11.2-37.7c-.9-22.8 9.9-37.5 9.9-37.5s.2-1.1-3.5-4.4zM565.3 9.1c.2 2.6 13.4 19.7 11.9 40.8-1.6 21.1-6.7 28.7-6.7 28.7s-3.6 7.6-3.9 8.3c-.5 1.2.2 6.2 1.9 7.8 1.7 1.7 4.4 5.1 10 .9 5.6-4.1 20.5-21.1 21.5-46.8 1-25.6-19.7-47.5-24.4-48.5-4.7-1-5.9.9-6.8 1.8-1 .9-3.8 4.4-3.5 7zM545.7 23s15.4-1.5 16.3 9c1 11.2-5.8 7.3-2.4 13.7 3.5 6.4 6.6 11 4.2 17.5s-8 14.1-20.5 13.3c-12.4-.7-14.2-4.3-15.9-6.5-2-2.6-1.7-8.2-1.2-9 1.5-2.5 2.6-2.7 4.3-3.3 1.6-.6-1.3-8.4-1.6-9.2-.3-.7-1.6-.9-1.8-7.4-.3-6.5 3.9-11.7 9.1-15.2 3.5-2.4 9.5-2.9 9.5-2.9z"/><path d="M0 47.6c0-16.8 12.3-32.9 32.7-33 12.2 0 21.9 3.7 21.9 5.2s-1.6 14.5-1.6 14.5h-5.3s-1.4-10.2-3.2-11.5c-.8-.5-4.6-2-11.8-2-13 0-18.3 11.2-18.3 26.4s5.5 25.3 18.2 25.3c6.2 0 11.9-1 13.5-2 .8-.6 4.1-12 4.1-12h5.9s-1.1 14.4-1.6 15.3c-1.3 1.8-13.2 4.7-21.6 4.7-19.5.1-32.9-9.5-32.9-30.9zM109.6 54.1c0 15.2-12.8 24.5-23.5 24.5-12.9 0-22.4-7.4-22.4-21.5 0-15.2 12.8-24.4 23.5-24.4 13-.1 22.4 7.3 22.4 21.4zm-13.2 1.7c0-10-2.7-18.4-9.7-18.4-5.3 0-9.7 6.2-9.7 17.8 0 10 2.7 18.5 9.7 18.5 5.3 0 9.7-6.2 9.7-17.9zM162 62.9c0 4.2.2 8.1.9 9.2.6.7 5.5 1.4 5.6 1.7.2.4-.3 3.8-.3 3.8h-24.8s.1-3.6.2-3.8c.2-.3 4.6-1 5.2-1.7.9-1.1.9-5.1.9-9.2v-12.7c0-6.1-.5-9.7-5.7-9.7-3.5 0-8.2 2-10 2.9v19.5c0 4.2.2 8.1.9 9.2.6.7 5.1 1.4 5.2 1.7.2.4-.3 3.8-.3 3.8h-24.8s.1-3.6.3-3.8c.2-.3 5-1 5.6-1.7.9-1.1.9-5.1.9-9.2v-17.1c0-2.7-.1-4.5-.3-5.2-.3-1-7.5-1.4-7.5-1.4s0-3.4.4-3.5c1.6-.8 14.5-2.3 17.7-2.3l2.1 2.6-.2 3.5c1.8-1.3 8.9-6.9 16-6.9 9.9 0 11.9 6.1 11.9 15.5v14.8zM199 39.3l-10-.4v23.6c0 7.1 1 9.6 4.4 9.6 2.8 0 6.7-1.5 8.3-2.5l1.7 4.1c-1.2.9-6.9 4.8-14.1 4.8-11.3 0-12.3-6.1-12.3-16v-23.6h-5l.6-5.4h4.5v-9.8l12.1-3.6v13.4l10.7-.4-.9 6.2zM226.4 62.9c0 4.2.2 8.1.9 9.2.6.7 5.1 1.4 5.2 1.7.2.4-.3 3.8-.3 3.8h-24.8s.1-3.6.3-3.8c.2-.3 5-1 5.6-1.7.9-1.1.9-5.1.9-9.2v-17.1c0-2.7-.1-4.5-.3-5.2-.3-1-7.5-1.4-7.5-1.4s0-3.4.4-3.5c1.6-.8 14.5-2.3 17.7-2.3l2.2 2.6-.3 3.5v23.4zm-7-53c3.7 0 7 2.8 7 6.1 0 3.1-3 5.9-7 5.9s-7-2.9-7-6c.1-3.1 2.9-6 7-6zM283.4 62.9c0 4.2.2 8.1.9 9.2.6.7 5.5 1.4 5.6 1.7.2.4-.3 3.8-.3 3.8h-24.8s.1-3.6.3-3.8c.2-.3 4.6-1 5.2-1.7.9-1.1.9-5.1.9-9.2v-12.7c0-6.1-.6-9.7-5.8-9.7-3.5 0-8.2 2-10 2.9v19.5c0 4.2.2 8.1.9 9.2.6.7 5.1 1.4 5.2 1.7.2.4-.3 3.8-.3 3.8h-24.8s.1-3.6.3-3.8c.2-.3 5-1 5.6-1.7.9-1.1.9-5.1.9-9.2v-17.1c0-2.7-.1-4.5-.3-5.2-.3-1-7.5-1.4-7.5-1.4s0-3.4.4-3.5c1.6-.8 14.5-2.3 17.8-2.3l2.1 2.6-.3 3.5c1.8-1.3 8.9-6.9 16.1-6.9 9.9 0 11.9 6.1 11.9 15.5v14.8zM311 34.5v25.1c0 9.2 2.3 11 5.8 11 2.5 0 7.9-1.8 9.5-2.6v-23.5c0-2.7-.1-4.5-.3-5.2-.2-.9-6.4-1.1-6.4-1.1s0-3.9.4-4.2c.2-.2 12.7-.6 17.5-.7l.9 1.2v37c0 .5 7.5 1 7.5 1s.2 3-.2 3.4c-.2.4-10 2.4-13.2 2.4-1.4 0-4.5-.2-4.8-1-.6-1.7-1.3-5.3-1.3-5.3-1.4 1.1-8.9 6.6-15.6 6.6-8.2 0-11.9-4.3-11.9-16.5v-17.6c0-2.7-.1-4.5-.3-5.2-.3-.9-6.4-1.1-6.4-1.1s0-4 .4-4.2c.3-.2 12.2-.6 17.5-.7l.9 1.2zM366.4 34.5v25.1c0 9.2 2.3 11 5.8 11 2.6 0 8-1.8 9.5-2.6v-23.5c0-2.7-.1-4.5-.2-5.2-.3-.9-6.4-1.1-6.4-1.1s0-3.9.4-4.2c.2-.2 12.7-.6 17.6-.7l.9 1.2v37c0 .5 7.5 1 7.5 1s.2 3-.2 3.4c-.3.4-10 2.4-13.2 2.4-1.4 0-4.6-.2-4.8-1-.6-1.7-1.3-5.3-1.3-5.3-1.4 1.1-8.9 6.6-15.6 6.6-8.2 0-11.9-4.3-11.9-16.5v-17.6c0-2.7-.1-4.5-.3-5.2-.2-.9-6.4-1.1-6.4-1.1s0-4 .4-4.2c.2-.2 12.2-.6 17.5-.7l.7 1.2zM450.2 62.9c0 4.2.2 8.1 1 9.2.6.7 4.7 1.4 4.8 1.7.2.4-.2 3.8-.2 3.8h-23.3s.1-3.6.2-3.8c.2-.3 3.9-1 4.5-1.7 1-1.1 1-5.1 1-9.2v-12.7c0-6.1-.6-9.7-5-9.7-2.8 0-7.5 2-9.3 2.9v19.5c0 4.2.2 8.1 1 9.2.6.7 4.3 1.4 4.4 1.7.2.4-.2 3.8-.2 3.8h-24s.1-3.6.2-3.8c.2-.3 5-1 5.6-1.7.9-1.1.9-5.1.9-9.2v-17.1c0-2.7-.1-4.5-.2-5.2-.3-1-7.5-1.4-7.5-1.4s0-3.4.4-3.5c1.5-.8 14.4-2.3 17.7-2.3l1.8 2.6-.3 3.5c1.8-1.3 8.9-6.9 15.3-6.9 6.2 0 9.2 2.9 10.4 7.6 2.4-1.8 10-7.6 16.4-7.6 9.2 0 11.1 6.1 11.1 15.5v14.9c0 4.2.2 8.1 1 9.2.6.7 5.4 1.4 5.5 1.7.2.4-.2 3.8-.2 3.8h-24s.1-3.6.2-3.8c.2-.3 3.9-1 4.5-1.7.9-1.1.9-5.1.9-9.2v-12.8c0-6.1-.6-9.7-5-9.7-2.7 0-7.6 2-9.9 3.1.1 1.4.2 2.9.2 4.5v14.8zM521 11.3s-13.2 14.3-13.2 42.3c0 23.4 7.1 36.4 13.2 44.5 0 2.7-2.5 4-2.5 4-11.6-9.5-23.2-24.5-23.2-47 0-27.8 20.8-45.3 23.5-47.4-.1-.2 2.2 1 2.2 3.6zM538.9 71.2c1.4 1.6 3.7 2.7 7.6 2.7 4.6 0 6.6-2.9 6.6-5.8 0-4.7-6.2-7.5-10.6-9.5-6.2-2.7-11.1-5.3-11.1-12.6s8.9-13.4 18.2-13.4c5.7 0 13.5 1.9 13.5 3.3 0 1-1.3 9.1-1.3 9.1h-6.3s-1-5.4-2.2-6.3c-.7-.6-1.8-1.2-3.9-1.2-3.9 0-6.8 2-6.8 5.9 0 4.4 5.5 6.3 9.2 8 5.9 2.6 12.6 5 12.6 13.1 0 7.2-8.3 14-18.5 14-6.6 0-16.5-3.1-16.5-5.4 0-1.8 1.1-8.8 1.1-8.8h6.4c0 .1.8 5.6 2 6.9zM572.5 98.3s13.9-15.6 13.9-43.7c0-23.3-7.9-35-13.9-43.1 0-2.7 2.7-4 2.7-4 11.6 9.5 23.6 23 23.6 45.7 0 27.8-21.2 46.6-24 48.8.1 0-2.3-1.2-2.3-3.7z"/></svg>